<?xml version='1.0' encoding='utf-8'?>
<svg xmlns="http://www.w3.org/2000/svg" viewBox="0 0 1200 800" style="background-color: #fcfcfc;"><style>
        .box { fill: #ffffff; stroke: #e5e7eb; stroke-width: 1.5px; rx: 12px; }
        .box-bronze { fill: #fffbeb; stroke: #fde047; stroke-width: 2px; rx: 12px; }
        .box-silver { fill: #f8fafc; stroke: #94a3b8; stroke-width: 2px; rx: 12px; }
        .box-gold { fill: #fefce8; stroke: #eab308; stroke-width: 2px; rx: 12px; }
        .box-process { fill: #f0f9ff; stroke: #7dd3fc; stroke-width: 2px; rx: 12px; }
        .title { font-family: 'Inter', -apple-system, sans-serif; font-size: 14px; font-weight: 600; fill: #1e293b; text-anchor: middle; }
        .desc { font-family: 'Inter', -apple-system, sans-serif; font-size: 11px; font-weight: 400; fill: #64748b; text-anchor: middle; }
        .header { font-family: 'Inter', -apple-system, sans-serif; font-size: 22px; font-weight: 700; fill: #0f172a; text-anchor: middle; }
        .line { fill: none; stroke: #cbd5e1; stroke-width: 1.5px; }
        .arrow { fill: #cbd5e1; }
        .shadow { filter: drop-shadow(0 4px 3px rgb(0 0 0 / 0.07)) drop-shadow(0 2px 2px rgb(0 0 0 / 0.06)); }
    </style><defs><marker id="arrowhead" markerWidth="10" markerHeight="7" refX="9" refY="3.5" orient="auto"><polygon points="0 0, 10 3.5, 0 7" class="arrow" /></marker></defs><text x="600.0" y="50" class="header">STRATUM Data Engine Architecture</text><path d="M 300 152.5 C 360.0 152.5, 360.0 295.0, 420 295.0" class="line" marker-end="url(#arrowhead)" /><path d="M 300 252.5 C 360.0 252.5, 360.0 295.0, 420 295.0" class="line" marker-end="url(#arrowhead)" /><path d="M 300 352.5 C 360.0 352.5, 360.0 295.0, 420 295.0" class="line" marker-end="url(#arrowhead)" /><path d="M 300 452.5 C 360.0 452.5, 360.0 295.0, 420 295.0" class="line" marker-end="url(#arrowhead)" /><path d="M 660 295.0 C 720.0 295.0, 720.0 165.0, 780 165.0" class="line" marker-end="url(#arrowhead)" /><path d="M 950.0 210 C 950.0 210, 950.0 320, 950.0 320" class="line" marker-end="url(#arrowhead)" /><path d="M 950.0 410 C 950.0 410, 950.0 480, 950.0 480" class="line" marker-end="url(#arrowhead)" /><path d="M 950.0 570 C 950.0 570, 950.0 640, 950.0 640" class="line" marker-end="url(#arrowhead)" /><rect x="80" y="120" width="220" height="65" class="box shadow" /><text x="190.0" y="148.5" class="title">NIfTI &amp; DICOM</text><text x="190.0" y="168.5" class="desc">Neuroimaging Modalities</text><rect x="80" y="220" width="220" height="65" class="box shadow" /><text x="190.0" y="248.5" class="title">EDF &amp; BDF</text><text x="190.0" y="268.5" class="desc">Electrophysiology</text><rect x="80" y="320" width="220" height="65" class="box shadow" /><text x="190.0" y="348.5" class="title">FHIR R4 Bundles</text><text x="190.0" y="368.5" class="desc">Clinical EHR Integration</text><rect x="80" y="420" width="220" height="65" class="box shadow" /><text x="190.0" y="448.5" class="title">Genomics &amp; VCFs</text><text x="190.0" y="468.5" class="desc">Multi-Omic Variant Mapping</text><rect x="420" y="250" width="240" height="90" class="box-bronze shadow" /><text x="540.0" y="291.0" class="title">Bronze Tier (Source)</text><text x="540.0" y="311.0" class="desc">Immutable Clinical Ingestion</text><rect x="780" y="120" width="340" height="90" class="box-process shadow" /><text x="950.0" y="161.0" class="title">STRATUM Core Engine</text><text x="950.0" y="181.0" class="desc">Autonomous FastMCP Orchestrator</text><rect x="780" y="320" width="340" height="90" class="box-silver shadow" /><text x="950.0" y="361.0" class="title">Silver Tier (Harmonized)</text><text x="950.0" y="381.0" class="desc">Validated Modality Tensors</text><rect x="780" y="480" width="340" height="90" class="box-process shadow" /><text x="950.0" y="521.0" class="title">Governance &amp; PII De-identifier</text><text x="950.0" y="541.0" class="desc">HIPAA Safe Harbor Compliance</text><rect x="780" y="640" width="340" height="90" class="box-gold shadow" /><text x="950.0" y="681.0" class="title">Gold Tier (Analytics)</text><text x="950.0" y="701.0" class="desc">Longitudinal Cohort Matrix</text></svg>